<svg xmlns="http://www.w3.org/2000/svg" width="23" height="20" viewBox="0 0 23 20">
    <g fill="#F57E20" fill-rule="nonzero">
        <path d="M6.169 14.864a.952.952 0 0 1 .905-1.677 9.197 9.197 0 0 0 3.546 1.057c.061-1.2.25-2.241.431-2.994H8.592v-.953c0-2.877 1.96-7.853 2.804-9.86H1.905A1.91 1.91 0 0 0 0 2.342v15.315a1.91 1.91 0 0 0 1.905 1.905h9.474a12.783 12.783 0 0 1-.735-3.404 11.084 11.084 0 0 1-4.475-1.294zM5.803 5.6a.819.819 0 0 1 1.637 0v1.19a.818.818 0 1 1-1.637 0v-1.19z"/>
        <path d="M20.953.437H13.47c-.32.73-2.482 5.745-2.901 8.908h3.125l-.482 1.286c-.01.025-.548 1.524-.672 3.582a9.173 9.173 0 0 0 3.422-1.123.952.952 0 1 1 .942 1.655 11.065 11.065 0 0 1-4.346 1.38c.083.975.288 2 .688 3.014a.95.95 0 0 1 .06.423h7.647a1.91 1.91 0 0 0 1.905-1.904V2.342A1.909 1.909 0 0 0 20.953.437zm-3.701 6.37a.82.82 0 0 1-1.638 0V5.615a.818.818 0 1 1 1.638 0v1.19z"/>
    </g>
</svg>
