<svg xmlns="http://www.w3.org/2000/svg" width="18" height="22" viewBox="0 0 18 22">
    <g fill="#F57E20" fill-rule="nonzero">
        <path d="M.985 8.04C-.864 11.25.312 16.12 2.356 19.071c1.021 1.476 2.055 2.802 3.47 2.802l.08-.002c.666-.027 1.146-.231 1.61-.43.523-.222 1.062-.451 1.908-.451.805 0 1.32.222 1.816.437.49.212.994.431 1.74.417 1.593-.03 2.572-1.46 3.436-2.72a12.06 12.06 0 0 0 1.506-3.085l.006-.02a.18.18 0 0 0-.095-.22c-.003 0-.011-.004-.013-.005-.281-.115-2.744-1.207-2.77-4.185-.024-2.42 1.848-3.7 2.223-3.933l.018-.01a.18.18 0 0 0 .05-.253c-1.291-1.89-3.271-2.175-4.068-2.21a3.589 3.589 0 0 0-.355-.017c-.937 0-1.834.354-2.554.638-.498.196-.927.366-1.224.366-.333 0-.765-.172-1.265-.37-.669-.266-1.427-.567-2.23-.567h-.057C3.721 5.282 1.958 6.35.985 8.04z"/>
        <path d="M13.274 0c-1.13.046-2.486.742-3.297 1.691-.689.798-1.361 2.129-1.184 3.47a.18.18 0 0 0 .164.155c.076.006.154.009.231.009 1.106 0 2.298-.612 3.112-1.596.857-1.04 1.29-2.374 1.16-3.57A.18.18 0 0 0 13.274 0z"/>
    </g>
</svg>
