<svg xmlns="http://www.w3.org/2000/svg" xmlns:xlink="http://www.w3.org/1999/xlink" width="18" height="19" viewBox="0 0 18 19">
    <defs>
        <path id="a" d="M0 .395v3.958h5.74V.395H0z"/>
        <path id="c" d="M6.002 4.353V.395H.067v3.958h5.935z"/>
        <path id="e" d="M6.002 4.353V.395H.266v3.958h5.736z"/>
    </defs>
    <g fill="none" fill-rule="evenodd">
        <path fill="#F57E20" d="M11.313 13.778A17 17 0 0 0 12 9.82H6.039c.068 1.317.298 2.648.687 3.958h4.587zM11.519 5.07H6.521a15.16 15.16 0 0 0-.507 3.958h6.01a15.127 15.127 0 0 0-.505-3.958M6.983 14.57a17.996 17.996 0 0 0 2.037 4.072 18.024 18.024 0 0 0 2.037-4.072H6.983zM11.282 4.278A12.984 12.984 0 0 0 9.02.128a12.984 12.984 0 0 0-2.263 4.15h4.525zM16.59 4.278C15.128 1.922 12.698.286 9.896.003a13.893 13.893 0 0 1 2.18 4.275h4.512z"/>
        <g transform="translate(0 4.675)">
            <mask id="b" fill="#fff">
                <use xlink:href="#a"/>
            </mask>
            <path fill="#F57E20" d="M5.74.395H.922A9.713 9.713 0 0 0 0 4.353h5.264A16.001 16.001 0 0 1 5.74.395" mask="url(#b)"/>
        </g>
        <path fill="#F57E20" d="M8.145 0a8.841 8.841 0 0 0-6.799 4.278h4.616A13.906 13.906 0 0 1 8.145 0"/>
        <g transform="translate(12.033 9.425)">
            <mask id="d" fill="#fff">
                <use xlink:href="#c"/>
            </mask>
            <path fill="#F57E20" d="M.067 4.353H5.01A9.87 9.87 0 0 0 6.002.395H.72a17.757 17.757 0 0 1-.652 3.958" mask="url(#d)"/>
        </g>
        <g transform="translate(12.033 4.675)">
            <mask id="f" fill="#fff">
                <use xlink:href="#e"/>
            </mask>
            <path fill="#F57E20" d="M.742 4.353h5.26A9.769 9.769 0 0 0 4.996.395H.266c.32 1.275.48 2.607.476 3.958" mask="url(#f)"/>
        </g>
        <path fill="#F57E20" d="M5.286 9.82H.011a10.205 10.205 0 0 0 1.024 3.958h4.903a17.8 17.8 0 0 1-.652-3.958M1.47 14.57c1.488 2.44 3.968 4.115 6.818 4.354a18.792 18.792 0 0 1-2.105-4.354H1.47zM9.754 18.922c2.875-.253 5.37-1.927 6.853-4.352h-4.751a18.777 18.777 0 0 1-2.102 4.352"/>
    </g>
</svg>
