<svg xmlns="http://www.w3.org/2000/svg" width="255" height="162" viewBox="0 0 255 162">
    <defs>
        <linearGradient id="a" x1="0%" x2="0%" y1="5.197%" y2="100%">
            <stop offset="0%" stop-color="#F57E20"/>
            <stop offset="61.466%" stop-color="#FFF" stop-opacity="0"/>
            <stop offset="100%" stop-color="#F57E20"/>
        </linearGradient>
        <linearGradient id="b" x1="0%" y1="79.161%" y2="50%">
            <stop offset="0%" stop-color="#F67E20"/>
            <stop offset="100%" stop-color="#F5AD20"/>
        </linearGradient>
    </defs>
    <g fill="none" fill-rule="evenodd">
        <path stroke="#FFF" stroke-linecap="square" d="M.56 101.377h252.903" opacity=".1"/>
        <path fill="url(#a)" d="M70.797 100.87l-69.301-.025c-1.66 0-1.784-.556-.273-1.244l12.912-5.875c1.508-.687 3.417-.088 4.263 1.336l13.147 22.127c.847 1.424 2.041 3.813 2.674 5.35l15.01 36.436c.63 1.53 2.02 1.753 3.104.499l15.075-17.455a65.206 65.206 0 0 1 4.162-4.31l13.32-12.357c1.215-1.126 2.629-3.316 3.159-4.89l15.801-46.969c.53-1.574 1.687-3.985 2.579-5.375l14.48-22.575a2.884 2.884 0 0 1 4.084-.828l12.792 8.807c1.36.936 2.863.417 3.354-1.159l15.938-51.067c.492-1.577 1.894-1.969 3.135-.873l13.231 11.685c1.24 1.094 3.353 1.235 4.727.31l12.755-8.589c1.37-.923 3.062-.46 3.778 1.04l15.128 31.644c.716 1.498 2.199 3.694 3.328 4.923l13.655 14.86c1.122 1.22 2.617.995 3.332-.492L252.7 8.878c.717-1.493 1.299-1.365 1.299.3v91.666s-147.05.039-183.203.026z" opacity=".333" transform="translate(0 1)"/>
        <path stroke="url(#b)" stroke-linecap="round" stroke-linejoin="round" d="M1 100.072l3.626-1.668 10.88-5.006c2.003-.921 4.532-.126 5.652 1.78l11.946 20.328c1.12 1.904 2.706 5.116 3.533 7.147l14.052 34.486c.832 2.042 2.665 2.342 4.104.658l13.555-15.867c1.434-1.68 3.897-4.26 5.514-5.776l11.652-10.928c1.61-1.51 3.484-4.44 4.181-6.536l14.957-44.95c.699-2.1 2.224-5.313 3.41-7.181l13.197-20.803a3.806 3.806 0 0 1 5.433-1.09l10.908 7.593c1.817 1.264 3.817.579 4.47-1.538l15.124-48.995c.653-2.114 2.525-2.628 4.168-1.16l11.513 10.28c1.65 1.472 4.462 1.661 6.296.413l10.867-7.399c1.828-1.244 4.072-.64 5.018 1.36l14.07 29.757c.943 1.996 2.91 4.936 4.402 6.578l12.098 13.311c1.488 1.637 3.517 1.37 4.532-.597L254.49 7.105" transform="translate(0 1)"/>
    </g>
</svg>
