<svg xmlns="http://www.w3.org/2000/svg" width="20" height="24"><path fill="#F57E20" d="M4.386 15.692c-.056-.296-.17-.622-.174-.95-.01-1.092.435-2.045.99-2.952.012-.018.041-.025.062-.038-.029.14-.093.254-.152.365-.41.789-.778 1.591-.797 2.502-.01.498.088.97.508 1.366-.006-.106-.015-.179-.013-.254.011-.353-.003-.71.044-1.057.118-.877.436-1.684.854-2.466.272-.507.605-.874 1.162-1.029.083-.022.156-.082.27-.144-.16-.1-.279-.17-.392-.248-.266-.18-.336-.439-.194-.73.07-.147.131-.307.236-.423.39-.43.591-.921.546-1.506-.001-.014.003-.029.005-.043a.437.437 0 0 0-.118-.399c-.43-.491-.395-1.007.095-1.429.121-.103.116-.177.062-.314-.208-.522-.256-1.062-.062-1.597.163-.446.63-.583.975-.287.232.2.401.452.444.768.02.151.028.304.04.455h.876c0-.076.008-.148-.001-.22-.041-.32.078-.594.244-.852.338-.528 1.118-.639 1.507-.193.364.42.57.912.468 1.484-.037.207-.111.406-.17.618.227.14.39.344.362.626-.024.246-.11.484-.16.727-.02.1-.054.217-.02.306.098.275.227.54.346.81.135.3.282.598.411.9.334.784.66 1.571.988 2.358.127.311.273.622.363.946.277.997.335 2.016.246 3.045-.01.121.01.178.134.228.248.099.375.299.374.572 0 .11-.026.224-.008.33.017.105.05.231.122.298.28.251.723.256 1.047.06.387-.236.621-.597.88-1.008-.694-.553-1.426-.64-2.234-.256.089-.092.18-.211.284-.227.312-.04.392-.257.465-.502.042-.147.093-.295.132-.444.292-1.111.093-2.12-.665-2.994-.196-.228-.446-.408-.672-.609.529.266.959.65 1.26 1.156.643 1.085.403 2.189.034 3.29.867.06 1.165.165 1.506.53.121-.013.24-.018.353-.044.052-.011.122-.054.138-.098.07-.2.14-.404.178-.612.118-.62-.028-1.219-.201-1.806-.367-1.24-.978-2.362-1.727-3.413-.47-.66-.954-1.314-1.35-2.019a6.356 6.356 0 0 1-.841-3.276 6.2 6.2 0 0 0-.094-1.27c-.137-.73-.383-1.437-.924-1.972C11.408.743 10.18.424 8.79.793 8.1.975 7.48 1.29 7.088 1.93c-.317.519-.44 1.1-.436 1.692.01 1.09.01 2.186.123 3.267.1.955-.066 1.774-.718 2.493-.26.287-.487.61-.716.927-.958 1.318-1.576 2.806-2.14 4.32-.143.384-.201.775-.07 1.19.43-.29.864-.383 1.255-.128zm8.308-8.391c.212.107.416.233.607.374.073.054.098.171.122.214 0 .275-.187.4-.375.295-.287-.16-.438-.423-.5-.739-.022-.111.044-.195.146-.144zm-1.59-3.781c.34-.044.7.251.802.666-.204-.298-.423-.576-.803-.666zm.14-1.784c.228.004.307.178.375.35.067.175-.097.202-.188.274-.023.016-.052.026-.08.038-.304.13-.383.078-.38-.253.003-.313.066-.41.274-.409zm-2.449 2.44c-.225-.183-.45-.366-.658-.533.242-.023.55.211.658.532zM7.79 21.585c.073.355-.102.628-.417.84a1.685 1.685 0 0 0-.284.245c-.376.393-.835.472-1.34.349a5.64 5.64 0 0 1-.777-.247c-.955-.383-1.943-.632-2.947-.836a7.268 7.268 0 0 1-1.02-.28c-.47-.167-.621-.44-.523-.925a5.88 5.88 0 0 0 .035-2.108c-.088-.552.05-.75.591-.891.207-.054.413-.117.622-.153.385-.069.673-.273.9-.585.199-.273.39-.557.625-.798.416-.427.786-.444 1.176-.005.432.49.826 1.016 1.19 1.558.613.909 1.132 1.88 1.84 2.728.253.303.37.667.33 1.108zm11.335-1.407a4.947 4.947 0 0 1-.662.435c-.98.56-1.933 1.159-2.753 1.945-.399.385-.881.51-1.415.504-.153-.01-.31-.009-.463-.029-.564-.073-.895-.397-1.017-.95-.1-.458-.067-.912.03-1.358.269-1.219.281-2.456.295-3.692.008-.561.142-.73.766-.708.436.014.492.075.445.496-.056.523.332.915.924.972.657.064 1.075-.31 1.46-.755.081-.094.138-.208.21-.311.172-.25.512-.236.631.045.07.169.108.374.087.555-.051.418.118.74.4 1.004.316.294.649.578 1 .829.403.288.453.7.062 1.018zM8.785 8.623c.563.099 1.076-.028 1.55-.355.253-.174.517-.35.801-.46.43-.166.653-.447.685-.903.029-.375-.041-.515-.4-.659-.177-.071-.36-.132-.577-.21.297-.102.47-.264.497-.549a.912.912 0 0 0-.236-.712c-.167-.181-.392-.17-.6-.1-.231.08-.297.298-.315.516-.016.192-.003.385-.003.578-.58-.366-1.188-.332-1.806-.094-.025-.22-.026-.444-.082-.653-.065-.252-.304-.402-.51-.368-.199.032-.33.23-.34.507-.013.374.16.663.428.919-.138.118-.269.225-.394.336-.417.365-.45.756-.06 1.16.312.32.654.616.997.905.097.08.24.12.365.142zm2.067-3.811c.07.047.154.084.203.148.033.041.015.122.022.186l-.07.015-.208-.283.053-.066zm-1.46.94c.112.017.229.02.334.058.04.015.053.108.078.167l-.065.05c-.124-.061-.249-.12-.373-.182.008-.033.017-.062.026-.092zm-.861.072c.057-.03.135-.023.203-.033l.024.062c-.053.042-.1.1-.16.123-.054.02-.123.001-.184-.001.038-.052.066-.122.117-.151zm-.663-.932l.035-.046c.057.022.147.032.165.07.041.094.047.204.067.308l-.077-.001c-.063-.11-.126-.222-.19-.33zm-.622 2.266l.066-.06c.068.047.143.09.204.146.68.62 1.443.639 2.234.275.48-.222.932-.502 1.401-.747.097-.052.213-.067.32-.101.012.024.02.046.03.07-.036.042-.065.096-.11.124-.656.404-1.292.858-2.06 1.032-.71.16-1.36.04-1.899-.49-.075-.069-.125-.166-.186-.249zm5.402 12.254l-.33 2.61c-1.343-.337-2.739-.036-4.113-.04l-.092-1.161c1.683.206 3.223-.173 4.535-1.41zm-5.854-1.625c.22.182.439.37.646.567.195.187.248.43.216.69-.026.221-.232.418-.45.409-.065-.003-.143-.087-.185-.151-.485-.755-.963-1.515-1.447-2.27-.111-.173-.239-.336-.36-.502a.58.58 0 0 0 .017-.027c.522.428 1.044.853 1.563 1.284z"/></svg>