<svg xmlns="http://www.w3.org/2000/svg" width="19" height="23"><path d="M1.387 7.244H1.33C.6 7.244.006 7.841.006 8.57v5.766c0 .73.595 1.325 1.324 1.325h.058c.73 0 1.325-.596 1.325-1.325V8.57a1.33 1.33 0 0 0-1.326-1.325zm1.959 9.316c0 .67.548 1.216 1.218 1.216h1.3v3.115c0 .731.597 1.326 1.325 1.326h.057c.73 0 1.326-.596 1.326-1.326v-3.115h1.818v3.115a1.33 1.33 0 0 0 1.326 1.326h.056c.73 0 1.325-.596 1.325-1.326v-3.115H14.4c.669 0 1.216-.545 1.216-1.215V7.456H3.346v9.105zm9.191-14.626L13.57.34a.22.22 0 1 0-.368-.24L12.13 1.75a6.983 6.983 0 0 0-2.648-.514 6.99 6.99 0 0 0-2.65.514L5.762.1a.22.22 0 0 0-.305-.064.22.22 0 0 0-.064.304l1.034 1.594c-1.864.914-3.121 2.636-3.121 4.611 0 .122.007.241.018.36H15.64c.01-.119.017-.238.017-.36 0-1.975-1.258-3.697-3.121-4.61zM6.626 4.79a.592.592 0 1 1 0-1.183.592.592 0 0 1 0 1.183zm5.71 0a.592.592 0 1 1-.002-1.183.592.592 0 0 1 .002 1.183zm5.295 2.454h-.055A1.33 1.33 0 0 0 16.25 8.57v5.766c0 .73.598 1.325 1.326 1.325h.056c.73 0 1.325-.596 1.325-1.325V8.57a1.33 1.33 0 0 0-1.326-1.325z" fill="#F57E20"/></svg>