<svg xmlns="http://www.w3.org/2000/svg" width="256" height="156"><defs><linearGradient id="a" x1="0%" x2="0%" y1="5.197%" y2="100%"><stop offset="0%" stop-color="#F57E20"/><stop offset="61.466%" stop-color="#FFF" stop-opacity="0"/><stop offset="100%" stop-color="#F57E20"/></linearGradient><linearGradient id="b" x1="0%" y1="79.161%" y2="50%"><stop offset="0%" stop-color="#F67E20"/><stop offset="100%" stop-color="#F5AD20"/></linearGradient></defs><g fill="none" fill-rule="evenodd"><path stroke="#FFF" stroke-linecap="square" d="M1.56 119.699h252.903" opacity=".1"/><path fill="url(#a)" d="M39.574 96.29c-22.708 0-38.297 55.276-38.297 55.276-.477 1.581-.381 1.602.208.065l14.307-37.299c.593-1.545 1.728-3.98 2.525-5.422l2.023-3.659c.801-1.45 2.74-3.006 4.335-3.479l15.62-4.628c1.592-.472 3.651-1.964 4.59-3.321L69.09 58.844a60 60 0 0 1 3.694-4.706L92.597 31.8a2.843 2.843 0 0 1 4.139-.154l16.92 16.405c1.19 1.152 2.562 3.375 3.06 4.94l14.107 44.365c.501 1.576 2.248 2.853 3.902 2.853h-1.084c1.653 0 3.27-1.315 3.61-2.932l5.104-24.29c.34-1.62 1.04-4.198 1.576-5.78 0 0 11.514-34.677 18.493-47.091 6.978-12.415 9.876-15.89 9.876-15.89.978-1.332 3.002-2.941 4.64-3.137 0 0-1.058-.912 4.847.725s15.207 12.13 15.207 12.13a121.48 121.48 0 0 1 3.953 4.509s54.032 65.082 54.032 73.26c0 8.176-192.696 4.575-215.405 4.575z" opacity=".333" transform="translate(1 1)"/><path stroke="url(#b)" stroke-linecap="round" stroke-linejoin="round" d="M.164 153.65l1.49-3.707 17.512-43.563c.823-2.048 3.168-4.341 5.224-5.117l16.942-6.396c2.063-.778 4.705-2.917 5.896-4.767l15.524-24.117c1.194-1.854 3.372-4.674 4.873-6.308l23.809-25.908c1.497-1.629 4.134-1.868 5.898-.53l15.07 11.44c1.76 1.336 3.636 4.16 4.185 6.293l5.819 22.593c.55 2.14 1.705 5.51 2.585 7.543l7.742 17.897c.877 2.026 2.034 1.932 2.585-.213l4.574-17.8a126.512 126.512 0 0 1 2.283-7.663l14.915-43.85c.71-2.088 2.263-5.286 3.465-7.137l13.127-20.215a3.85 3.85 0 0 1 5.466-1.073l14.988 10.41c1.815 1.26 4.376 3.704 5.713 5.45l20.697 27.017c1.34 1.75 3.56 4.557 4.95 6.261l13.516 16.576c1.394 1.709 4.097 2.235 6.027 1.183l6.262-3.414" transform="translate(1 1)"/></g></svg>